#!OML:ASF H:\GeneralSubjects\Female5\Project 1\Capture day 1\Session 1\Female5.ASF
:FULLY-SPECIFIED
:DEGREES
778
root -30.8633 16.2242 -3.51169 -174.908 -35.075 -175.785
lowerback 7.14816 -1.46793 2.80941
upperback -10.2093 -1.72864 5.41516
thorax -15.2977 -1.03256 4.95803
lowerneck -14.0457 -6.45836 -8.15292
upperneck 28.8708 -8.85925 0.394775
head 12.2461 -5.35111 0.0966958
rclavicle -4.45278e-014 9.54166e-015
rhumerus -48.9187 18.7839 -74.5219
rradius 40.5498
rwrist -23.7718
rhand -30.8944 -22.7334
rfingers 7.12502
rthumb -4.1812 -52.6721
lclavicle -4.45278e-014 9.54166e-015
lhumerus -54.6885 9.38249 66.3822
lradius 26.6349
lwrist -13.6676
lhand -26.3865 27.6577
lfingers 7.12502
lthumb 0.172494 57.6374
rfemur 0.448106 14.2712 31.0253
rtibia 1.28521
rfoot -31.9084 -24.2552
rtoes 16.3867
lfemur -27.3185 -18.941 -0.300787
ltibia 26.1416
lfoot -5.45767 -11.1915
ltoes -57.2474
779
root -31.1262 16.2142 -3.5019 -174.954 -34.0628 -175.795
lowerback 6.91579 -1.25018 2.88643
upperback -10.1629 -1.44877 5.31252
thorax -15.1097 -0.923579 4.72232
lowerneck -14.0755 -6.38696 -8.02129
upperneck 28.9758 -8.81404 0.417348
head 12.2847 -5.32142 0.0860688
rclavicle 9.93923e-014 -7.95139e-015
rhumerus -48.694 18.7371 -74.8102
rradius 40.5574
rwrist -23.9961
rhand -31.045 -22.9104
rfingers 7.12502
rthumb -4.32659 -52.8462
lclavicle 9.93923e-014 -7.95139e-015
lhumerus -55.5329 9.61707 66.0468
lradius 26.2847
lwrist -13.9479
lhand -26.1732 27.5595
lfingers 7.12502
lthumb 0.378501 57.5389
rfemur 1.28894 15.8455 30.543
rtibia 1.06435
rfoot -32.8724 -24.3114
rtoes 17.6398
lfemur -26.9592 -22.7445 1.19699
ltibia 24.1776
lfoot -5.81439 -9.6977
ltoes -58.8086
780
root -31.3982 16.1932 -3.4905 -175.066 -32.9698 -175.759
lowerback 6.68119 -1.01429 3.04715
upperback -10.1077 -1.13402 5.22377
thorax -14.9118 -0.806559 4.45091
lowerneck -14.1301 -6.31101 -7.83599
upperneck 29.1378 -8.76195 0.367357
head 12.3442 -5.29493 0.0377938
rclavicle -8.3092e-014 0
rhumerus -48.558 18.7407 -75.1048
rradius 40.5652
rwrist -24.0769
rhand -31.0921 -22.9522
rfingers 7.12502
rthumb -4.37208 -52.8871
lclavicle -8.3092e-014 0
lhumerus -56.2954 9.89945 65.7532
lradius 25.9009
lwrist -14.0962
lhand -26.0382 27.5551
lfingers 7.12502
lthumb 0.508867 57.5343
rfemur 2.11617 17.279 30.0757
rtibia 0.913403
rfoot -33.5417 -24.5079
rtoes 17.5475
lfemur -26.4622 -25.6248 2.00581
ltibia 23.1874
lfoot -6.02322 -8.47409
ltoes -59.4405
781
root -31.6794 16.1614 -3.47683 -175.252 -31.8025 -175.691
lowerback 6.47184 -0.763624 3.2907
upperback -10.0413 -0.787408 5.14857
thorax -14.7172 -0.681776 4.14609
lowerneck -14.1309 -6.22494 -7.71566
upperneck 29.3098 -8.71596 0.398611
head 12.4052 -5.27104 0.0306648
rclavicle -1.20662e-013 5.88403e-014
rhumerus -48.4899 18.7683 -75.3824
rradius 40.5581
rwrist -23.9755
rhand -31.0267 -22.8913
rfingers 7.12502
rthumb -4.30895 -52.8275
lclavicle -1.20662e-013 5.88403e-014
lhumerus -56.9675 10.2306 65.5094
lradius 25.4826
lwrist -14.1475
lhand -25.9419 27.6357
lfingers 7.12502
lthumb 0.601822 57.6146
rfemur 2.95402 18.6095 29.6165
rtibia 0.819131
rfoot -33.947 -24.7916
rtoes 16.5696
lfemur -25.6054 -27.3684 1.98654
ltibia 22.8346
lfoot -5.70844 -7.53286
ltoes -59.1359
782
root -31.9687 16.1208 -3.46038 -175.491 -30.5713 -175.637
lowerback 6.31809 -0.501287 3.57245
upperback -9.96713 -0.416542 5.08388
thorax -14.5469 -0.547106 3.83242
lowerneck -14.1103 -6.13063 -7.5682
upperneck 29.4966 -8.65605 0.373596
head 12.4631 -5.24764 0.000422708
rclavicle -3.08116e-014 8.26944e-014
rhumerus -48.4741 18.7815 -75.6167
rradius 40.5186
rwrist -23.6752
rhand -30.8784 -22.7335
rfingers 7.12502
rthumb -4.16574 -52.6725
lclavicle -3.08116e-014 8.26944e-014
lhumerus -57.537 10.6146 65.3196
lradius 25.0215
lwrist -14.1891
lhand -25.7978 27.8389
lfingers 7.12502
lthumb 0.741028 57.8174
rfemur 3.79975 19.818 29.1079
rtibia 0.773625
rfoot -34.1207 -25.0385
rtoes 15.2268
lfemur -24.2397 -28.064 1.17073
ltibia 22.6892
lfoot -4.68818 -7.07074
ltoes -58.1089
783
root -32.2648 16.0744 -3.44104 -175.75 -29.306 -175.659
lowerback 6.23693 -0.236531 3.82935
upperback -9.8829 -0.0393806 5.01597
thorax -14.4069 -0.40398 3.53243
lowerneck -14.0571 -6.02834 -7.41967
upperneck 29.662 -8.58526 0.341575
head 12.5049 -5.22075 -0.0291187
rclavicle 2.18663e-014 -6.67916e-014
rhumerus -48.4961 18.7654 -75.8064
rradius 40.4424
rwrist -23.2322
rhand -30.6999 -22.5265
rfingers 7.12502
rthumb -3.99335 -52.4689
lclavicle 2.18663e-014 -6.67916e-014
lhumerus -57.9687 11.0395 65.1903
lradius 24.5104
lwrist -14.3016
lhand -25.6446 27.9989
lfingers 7.12502
lthumb 0.888958 57.9768
rfemur 4.587 20.8337 28.4547
rtibia 0.847737
rfoot -34.0725 -25.1898
rtoes 13.6297
lfemur -22.3482 -27.9324 -0.319081
ltibia 22.3587
lfoot -3.00496 -7.04222
ltoes -56.7144
784
root -32.5654 16.026 -3.419 -175.992 -28.0504 -175.828
lowerback 6.23874 0.0131966 3.99983
upperback -9.7882 0.314754 4.91544
thorax -14.3019 -0.260305 3.25157
lowerneck -13.99 -5.91593 -7.28094
upperneck 29.7997 -8.51518 0.374912
head 12.5366 -5.18602 -0.0312884
rclavicle -5.36719e-015 -3.18055e-014
rhumerus -48.561 18.7042 -75.9786
rradius 40.3422
rwrist -22.738
rhand -30.5537 -22.3599
rfingers 7.12502
rthumb -3.85213 -52.3048
lclavicle -5.36719e-015 -3.18055e-014
lhumerus -58.2369 11.4615 65.13
lradius 23.9697
lwrist -14.5092
lhand -25.4274 28.0941
lfingers 7.12502
lthumb 1.09882 58.0711
rfemur 5.25428 21.646 27.5623
rtibia 1.12146
rfoot -33.9615 -25.0888
rtoes 12.2289
lfemur -20.0314 -27.3684 -2.2903
ltibia 21.6648
lfoot -0.888987 -7.50783
ltoes -55.475
785
root -32.867 15.9794 -3.3935 -176.189 -26.859 -176.188
lowerback 6.33385 0.22927 4.03557
upperback -9.68695 0.616211 4.7584
thorax -14.2434 -0.125809 2.99444
lowerneck -13.9548 -5.80325 -7.14024
upperneck 29.9476 -8.4634 0.474027
head 12.5832 -5.15004 -0.0135845
rclavicle -2.84262e-014 -3.97569e-014
rhumerus -48.6729 18.5811 -76.1504
rradius 40.2256
rwrist -22.2845
rhand -30.4816 -22.3081
rfingers 7.12502
rthumb -3.78256 -52.2543
lclavicle -2.84262e-014 -3.97569e-014
lhumerus -58.3201 11.8093 65.1756
lradius 23.4458
lwrist -14.7696
lhand -25.1663 28.0859
lfingers 7.12502
lthumb 1.35094 58.0614
rfemur 5.76677 22.2191 26.3667
rtibia 1.57035
rfoot -33.6303 -24.9649
rtoes 10.4872
lfemur -17.4783 -26.6473 -4.59333
ltibia 20.5727
lfoot 1.29021 -8.18799
ltoes -54.9457
786
root -33.1656 15.9375 -3.3634 -176.322 -25.7876 -176.742
lowerback 6.53225 0.397682 3.91322
upperback -9.60128 0.842288 4.5416
thorax -14.2658 -0.0102973 2.77519
lowerneck -13.9453 -5.69846 -7.00759
upperneck 30.1065 -8.44383 0.646429
head 12.6454 -5.11938 0.0265877
rclavicle 6.36111e-015 2.54444e-014
rhumerus -48.8413 18.392 -76.3186
rradius 40.0807
rwrist -21.9225
rhand -30.4869 -22.388
rfingers 7.12502
rthumb -3.78766 -52.334
lclavicle 6.36111e-015 2.54444e-014
lhumerus -58.2297 11.9881 65.3951
lradius 23.0067
lwrist -14.9873
lhand -24.8776 27.9626
lfingers 7.12502
lthumb 1.62981 57.9361
rfemur 6.09935 22.5831 24.8629
rtibia 2.16877
rfoot -33.0804 -24.9439
rtoes 8.24923
lfemur -14.9418 -25.9438 -7.08423
ltibia 19.2622
lfoot 3.24882 -8.84164
ltoes -54.9378
787
root -33.4577 15.9013 -3.32806 -176.359 -24.8783 -177.463
lowerback 6.78179 0.5113 3.6389
upperback -9.53913 0.976331 4.26906
thorax -14.3469 0.076334 2.59673
lowerneck -13.995 -5.60995 -6.83654
upperneck 30.2967 -8.45668 0.81657
head 12.7325 -5.09826 0.051397
rclavicle 1.41137e-014 1.90833e-014
rhumerus -49.0196 18.0836 -76.4498
rradius 39.8646
rwrist -21.6005
rhand -30.5351 -22.5445
rfingers 7.12502
rthumb -3.8342 -52.4898
lclavicle 1.41137e-014 1.90833e-014
lhumerus -57.9513 11.8975 65.876
lradius 22.7265
lwrist -15.0356
lhand -24.545 27.759
lfingers 7.12502
lthumb 1.95103 57.7299
rfemur 6.25369 22.7792 23.0764
rtibia 2.85368
rfoot -32.5126 -24.9519
rtoes 5.99698
lfemur -12.6958 -25.3497 -9.63362
ltibia 18.0272
lfoot 4.63322 -9.55487
ltoes -53.7657
